<?xml version="1.0" encoding="UTF-8"?>
<svg width="24" height="24" viewBox="0 0 24 24" fill="none" xmlns="http://www.w3.org/2000/svg">
  <path d="M21.5287 15.9294C20.7486 16.2452 19.9101 16.4194 19.0378 16.4194C14.6951 16.4194 11.1816 12.9059 11.1816 8.56319C11.1816 7.69089 11.3558 6.85245 11.6716 6.07227C11.7171 5.95557 11.7398 5.83138 11.7398 5.70719C11.7398 5.01904 11.0744 4.47649 10.409 4.62825C6.07349 5.61183 3 9.47679 3 14.0327C3 19.5155 7.48455 24 13.0218 24C17.5777 24 21.4427 20.9265 22.4262 16.591C22.578 15.9256 22.0354 15.2602 21.3473 15.2602C21.2231 15.2602 21.0989 15.2829 21.0317 15.3284L21.5287 15.9294Z" fill="currentColor"/>
</svg> 